<mxfile host="app.diagrams.net" modified="2023-09-30T14:38:19.366Z" agent="Mozilla/5.0 (Windows NT 10.0; Win64; x64) AppleWebKit/537.36 (KHTML, like Gecko) Chrome/117.0.0.0 Safari/537.36" etag="1k0539htjClZOfFFTgTe" version="21.6.8" type="device">
  <diagram name="Page-1" id="7HXYfZxhfAYphCQm7l53">
    <mxGraphModel dx="875" dy="435" grid="1" gridSize="10" guides="1" tooltips="1" connect="1" arrows="1" fold="1" page="1" pageScale="1" pageWidth="600" pageHeight="700" math="0" shadow="0">
      <root>
        <mxCell id="0" />
        <mxCell id="1" parent="0" />
        <mxCell id="TzPt3WSmhlOqroEjM9LY-10" style="edgeStyle=orthogonalEdgeStyle;rounded=0;orthogonalLoop=1;jettySize=auto;html=1;exitX=0.5;exitY=1;exitDx=0;exitDy=0;entryX=0.5;entryY=0;entryDx=0;entryDy=0;" edge="1" parent="1" source="TzPt3WSmhlOqroEjM9LY-1" target="TzPt3WSmhlOqroEjM9LY-2">
          <mxGeometry relative="1" as="geometry" />
        </mxCell>
        <mxCell id="TzPt3WSmhlOqroEjM9LY-13" style="edgeStyle=orthogonalEdgeStyle;rounded=0;orthogonalLoop=1;jettySize=auto;html=1;exitX=1;exitY=0.5;exitDx=0;exitDy=0;entryX=0;entryY=0.5;entryDx=0;entryDy=0;dashed=1;" edge="1" parent="1" source="TzPt3WSmhlOqroEjM9LY-1" target="TzPt3WSmhlOqroEjM9LY-5">
          <mxGeometry relative="1" as="geometry" />
        </mxCell>
        <mxCell id="TzPt3WSmhlOqroEjM9LY-1" value="Read ABM source file name and open it" style="rounded=1;whiteSpace=wrap;html=1;" vertex="1" parent="1">
          <mxGeometry x="80" y="40" width="120" height="60" as="geometry" />
        </mxCell>
        <mxCell id="TzPt3WSmhlOqroEjM9LY-11" style="edgeStyle=orthogonalEdgeStyle;rounded=0;orthogonalLoop=1;jettySize=auto;html=1;exitX=0.5;exitY=1;exitDx=0;exitDy=0;entryX=0.5;entryY=0;entryDx=0;entryDy=0;" edge="1" parent="1" source="TzPt3WSmhlOqroEjM9LY-2" target="TzPt3WSmhlOqroEjM9LY-3">
          <mxGeometry relative="1" as="geometry" />
        </mxCell>
        <mxCell id="TzPt3WSmhlOqroEjM9LY-2" value="Parse the program" style="rounded=1;whiteSpace=wrap;html=1;" vertex="1" parent="1">
          <mxGeometry x="80" y="140" width="120" height="60" as="geometry" />
        </mxCell>
        <mxCell id="TzPt3WSmhlOqroEjM9LY-12" style="edgeStyle=orthogonalEdgeStyle;rounded=0;orthogonalLoop=1;jettySize=auto;html=1;exitX=0.5;exitY=1;exitDx=0;exitDy=0;entryX=0.5;entryY=0;entryDx=0;entryDy=0;" edge="1" parent="1" source="TzPt3WSmhlOqroEjM9LY-3" target="TzPt3WSmhlOqroEjM9LY-4">
          <mxGeometry relative="1" as="geometry" />
        </mxCell>
        <mxCell id="TzPt3WSmhlOqroEjM9LY-3" value="Initialize the stack and registers" style="rounded=1;whiteSpace=wrap;html=1;" vertex="1" parent="1">
          <mxGeometry x="80" y="240" width="120" height="60" as="geometry" />
        </mxCell>
        <mxCell id="TzPt3WSmhlOqroEjM9LY-15" style="edgeStyle=orthogonalEdgeStyle;rounded=0;orthogonalLoop=1;jettySize=auto;html=1;exitX=1;exitY=0.5;exitDx=0;exitDy=0;entryX=0;entryY=0.5;entryDx=0;entryDy=0;" edge="1" parent="1" source="TzPt3WSmhlOqroEjM9LY-4" target="TzPt3WSmhlOqroEjM9LY-6">
          <mxGeometry relative="1" as="geometry" />
        </mxCell>
        <mxCell id="TzPt3WSmhlOqroEjM9LY-4" value="Build the function table" style="rounded=1;whiteSpace=wrap;html=1;" vertex="1" parent="1">
          <mxGeometry x="80" y="340" width="120" height="60" as="geometry" />
        </mxCell>
        <mxCell id="TzPt3WSmhlOqroEjM9LY-5" value="Exit with a non-zero return code and a message" style="rounded=1;whiteSpace=wrap;html=1;" vertex="1" parent="1">
          <mxGeometry x="320" y="40" width="120" height="60" as="geometry" />
        </mxCell>
        <mxCell id="TzPt3WSmhlOqroEjM9LY-16" style="edgeStyle=orthogonalEdgeStyle;rounded=0;orthogonalLoop=1;jettySize=auto;html=1;exitX=0.5;exitY=1;exitDx=0;exitDy=0;entryX=0.5;entryY=0;entryDx=0;entryDy=0;" edge="1" parent="1" source="TzPt3WSmhlOqroEjM9LY-6" target="TzPt3WSmhlOqroEjM9LY-7">
          <mxGeometry relative="1" as="geometry" />
        </mxCell>
        <mxCell id="TzPt3WSmhlOqroEjM9LY-22" style="edgeStyle=orthogonalEdgeStyle;rounded=0;orthogonalLoop=1;jettySize=auto;html=1;exitX=0.25;exitY=1;exitDx=0;exitDy=0;entryX=0.5;entryY=0;entryDx=0;entryDy=0;dashed=1;" edge="1" parent="1" source="TzPt3WSmhlOqroEjM9LY-6" target="TzPt3WSmhlOqroEjM9LY-21">
          <mxGeometry relative="1" as="geometry">
            <Array as="points">
              <mxPoint x="350" y="430" />
              <mxPoint x="140" y="430" />
            </Array>
          </mxGeometry>
        </mxCell>
        <mxCell id="TzPt3WSmhlOqroEjM9LY-27" style="edgeStyle=orthogonalEdgeStyle;rounded=0;orthogonalLoop=1;jettySize=auto;html=1;exitX=0.25;exitY=0;exitDx=0;exitDy=0;entryX=0.25;entryY=1;entryDx=0;entryDy=0;dashed=1;" edge="1" parent="1" source="TzPt3WSmhlOqroEjM9LY-6" target="TzPt3WSmhlOqroEjM9LY-5">
          <mxGeometry relative="1" as="geometry" />
        </mxCell>
        <mxCell id="TzPt3WSmhlOqroEjM9LY-6" value="Read the next instruction" style="rounded=1;whiteSpace=wrap;html=1;" vertex="1" parent="1">
          <mxGeometry x="320" y="340" width="120" height="60" as="geometry" />
        </mxCell>
        <mxCell id="TzPt3WSmhlOqroEjM9LY-17" style="edgeStyle=orthogonalEdgeStyle;rounded=0;orthogonalLoop=1;jettySize=auto;html=1;exitX=0.5;exitY=1;exitDx=0;exitDy=0;entryX=0.5;entryY=0;entryDx=0;entryDy=0;" edge="1" parent="1" source="TzPt3WSmhlOqroEjM9LY-7" target="TzPt3WSmhlOqroEjM9LY-8">
          <mxGeometry relative="1" as="geometry" />
        </mxCell>
        <mxCell id="TzPt3WSmhlOqroEjM9LY-7" value="Find its handler from the function table" style="rounded=1;whiteSpace=wrap;html=1;" vertex="1" parent="1">
          <mxGeometry x="320" y="440" width="120" height="60" as="geometry" />
        </mxCell>
        <mxCell id="TzPt3WSmhlOqroEjM9LY-19" style="edgeStyle=orthogonalEdgeStyle;rounded=0;orthogonalLoop=1;jettySize=auto;html=1;exitX=0.5;exitY=1;exitDx=0;exitDy=0;entryX=0.5;entryY=0;entryDx=0;entryDy=0;" edge="1" parent="1" source="TzPt3WSmhlOqroEjM9LY-8" target="TzPt3WSmhlOqroEjM9LY-6">
          <mxGeometry relative="1" as="geometry">
            <Array as="points">
              <mxPoint x="380" y="620" />
              <mxPoint x="480" y="620" />
              <mxPoint x="480" y="320" />
              <mxPoint x="380" y="320" />
            </Array>
          </mxGeometry>
        </mxCell>
        <mxCell id="TzPt3WSmhlOqroEjM9LY-23" style="edgeStyle=orthogonalEdgeStyle;rounded=0;orthogonalLoop=1;jettySize=auto;html=1;exitX=0;exitY=0.5;exitDx=0;exitDy=0;entryX=1;entryY=0.5;entryDx=0;entryDy=0;dashed=1;" edge="1" parent="1" source="TzPt3WSmhlOqroEjM9LY-8" target="TzPt3WSmhlOqroEjM9LY-21">
          <mxGeometry relative="1" as="geometry" />
        </mxCell>
        <mxCell id="TzPt3WSmhlOqroEjM9LY-8" value="Execute the handler, passing it any args" style="rounded=1;whiteSpace=wrap;html=1;" vertex="1" parent="1">
          <mxGeometry x="320" y="540" width="120" height="60" as="geometry" />
        </mxCell>
        <mxCell id="TzPt3WSmhlOqroEjM9LY-20" value="On error" style="text;html=1;align=center;verticalAlign=middle;resizable=0;points=[];autosize=1;strokeColor=none;fillColor=none;fontSize=11;" vertex="1" parent="1">
          <mxGeometry x="230" y="50" width="60" height="30" as="geometry" />
        </mxCell>
        <mxCell id="TzPt3WSmhlOqroEjM9LY-21" value="Exit with code 0" style="rounded=1;whiteSpace=wrap;html=1;" vertex="1" parent="1">
          <mxGeometry x="80" y="540" width="120" height="60" as="geometry" />
        </mxCell>
        <mxCell id="TzPt3WSmhlOqroEjM9LY-24" value="If all instructions have been executed" style="text;html=1;align=center;verticalAlign=middle;resizable=0;points=[];autosize=1;strokeColor=none;fillColor=none;fontSize=10;" vertex="1" parent="1">
          <mxGeometry x="140" y="408" width="190" height="30" as="geometry" />
        </mxCell>
        <mxCell id="TzPt3WSmhlOqroEjM9LY-25" value="If the instruction is &quot;halt&quot;" style="text;html=1;align=center;verticalAlign=middle;resizable=0;points=[];autosize=1;strokeColor=none;fillColor=none;fontSize=10;" vertex="1" parent="1">
          <mxGeometry x="200" y="550" width="130" height="30" as="geometry" />
        </mxCell>
        <mxCell id="TzPt3WSmhlOqroEjM9LY-28" value="On error" style="text;html=1;align=center;verticalAlign=middle;resizable=0;points=[];autosize=1;strokeColor=none;fillColor=none;fontSize=11;rotation=270;" vertex="1" parent="1">
          <mxGeometry x="310" y="200" width="60" height="30" as="geometry" />
        </mxCell>
      </root>
    </mxGraphModel>
  </diagram>
</mxfile>
